<?xml version="1.0" ?><!DOCTYPE svg  PUBLIC '-//W3C//DTD SVG 1.1//EN'  'http://www.w3.org/Graphics/SVG/1.1/DTD/svg11.dtd'><svg enable-background="new 0 0 24 24" height="24px" id="Layer_1" version="1.1" viewBox="0 0 24 24" width="24px" xml:space="preserve" xmlns="http://www.w3.org/2000/svg" xmlns:xlink="http://www.w3.org/1999/xlink"><g><path d="M23,4h-1V3c0-0.6-0.4-1-1-1h-1V1c0-0.6-0.4-1-1-1H1C0.4,0,0,0.4,0,1v18c0,0.6,0.4,1,1,1h1v1c0,0.6,0.4,1,1,1h1v1   c0,0.6,0.4,1,1,1h18c0.6,0,1-0.4,1-1V5C24,4.4,23.6,4,23,4z M2,3v16H1V1h18v1H3C2.4,2,2,2.4,2,3z M4,5v16H3V3h18v1H5   C4.4,4,4,4.4,4,5z M22,22H11.5l6.5-6.5l4,4V22z M22,18l-4-4l-8,8H6V6h16V18z"/><path d="M12,15c1.7,0,3-1.3,3-3s-1.3-3-3-3s-3,1.3-3,3S10.3,15,12,15z M12,10c1.1,0,2,0.9,2,2s-0.9,2-2,2s-2-0.9-2-2S10.9,10,12,10   z"/></g></svg>
